<?xml version="1.0" encoding="UTF-8" standalone="no"?>
<!-- Created with Inkscape (http://www.inkscape.org/) -->

<svg
   version="1.1"
   id="svg1"
   width="1021.6426"
   height="934.021"
   viewBox="0 0 1021.6426 934.021"
   xmlns="http://www.w3.org/2000/svg"
   xmlns:svg="http://www.w3.org/2000/svg">
  <defs
     id="defs1" />
  <g
     id="g1"
     style="fill:#000000"
     transform="translate(-2.0349345,-55.395237)">
    <path
       style="fill:#000000"
       d="M 443.121,947.62686 C 286.25013,842.2188 169.18264,729.92692 92.485965,611.29547 62.834373,565.43154 26.154521,488.73364 12.987569,445.06362 3.0990911,412.26712 2.1252401,403.19054 2.0436971,343.06362 1.9565771,278.8253 2.2846901,276.19798 14.336128,244.63325 51.142792,148.23045 128.45983,82.100853 228.53231,61.430313 c 91.67743,-18.93649 186.88211,8.49628 255.75624,73.694947 l 27.53082,26.06164 20.93665,-21.3191 C 573.16674,98.718913 632.76701,68.576683 692.79177,58.931353 837.02485,35.754663 979.83203,128.8498 1015.8046,269.50154 c 8.7777,34.32059 10.4421,91.45396 3.8477,132.08248 -12.4518,76.71596 -60.75699,175.18988 -133.12867,271.3927 -34.28082,45.56909 -148.21208,157.58586 -204.83095,201.38899 -45.15295,34.93255 -154.4479,110.05095 -167.29167,114.97955 -3.43967,1.32 -32.82077,-15.8761 -71.28001,-41.7184 z M 567.69268,863.60427 C 690.18112,778.80919 796.51108,674.95523 862.08292,576.0692 956.78973,433.246 973.81003,315.89808 913.08726,224.41536 865.34415,152.48732 769.31984,115.44957 686.50546,137.01998 c -66.45437,17.30916 -115.22967,60.42184 -150.66767,133.17575 -12.02018,24.67734 -22.82018,44.84603 -24,44.81932 -1.17981,-0.0267 -12.93574,-21.17671 -26.12429,-47 C 448.04346,194.2568 402.94798,154.9114 335.51131,136.965 232.39118,109.52243 118.83022,172.97236 82.658864,278.2413 c -12.123171,35.28187 -10.970835,96.25549 2.699189,142.82232 43.738427,148.99461 172.393357,302.9651 370.334627,443.20574 52.89659,37.477 54.20433,38.1299 64,31.94998 5.5,-3.46984 27.1,-18.14662 48,-32.61507 z"
       id="path1" />
  </g>
</svg>
