<?xml version="1.0" encoding="UTF-8" standalone="no"?>
<!-- Created with Inkscape (http://www.inkscape.org/) -->

<svg
   version="1.1"
   id="svg1"
   width="515.74469"
   height="522.55365"
   viewBox="0 0 515.74469 522.55365"
   xmlns="http://www.w3.org/2000/svg"
   xmlns:svg="http://www.w3.org/2000/svg">
  <defs
     id="defs1" />
  <g
     id="g1"
     transform="translate(-0.73868984,-0.50288647)">
    <path
       style="fill:#000000"
       d="M 0.73868983,261.77971 C 0.73868983,117.89035 1.1203818,0.31587975 1.5868939,0.50310975 5.9523388,2.2551797 516.48338,261.31659 516.48338,261.77971 516.48338,262.24282 5.9523388,521.30424 1.5868939,523.0563 1.1203818,523.24354 0.73868983,405.66907 0.73868983,261.77971 Z M 299.72173,334.29035 c 78.19696,-39.6 142.04762,-72.40774 141.89035,-72.90609 C 441.36907,260.61425 241.35253,159.03299 76.568476,75.991639 l -48.255317,-24.3178 v 72.140271 72.14028 l 46.468087,27.8479 c 25.557454,15.31635 46.448244,28.17386 46.423994,28.57224 -0.0242,0.39838 -20.70508,13.34773 -45.957444,28.77633 l -45.91336,28.052 v 80.94207 80.94207 l 64.1055,-32.39833 C 128.69795,420.86959 221.52477,373.89035 299.72173,334.29035 Z"
       id="path1" />
  </g>
</svg>
